<svg width="159" height="56" fill="none" xmlns="http://www.w3.org/2000/svg"><rect width="159" height="56" rx="4" fill="#E5ECF4"/><g clip-path="url(#a)" fill="#495567"><path d="M60.5 40h-4.76l-.68 3H52.3l3.34-14h4.96l3.34 14h-2.76l-.68-3Zm-4.2-2.52h3.62l-1.62-7.16h-.36l-1.64 7.16ZM66.913 47h-2.52V33.08h2.52v1.44h.36a2.874 2.874 0 0 1 1.16-1.26c.507-.307 1.154-.46 1.94-.46.587 0 1.14.113 1.66.34.534.227.994.56 1.38 1 .4.427.714.953.94 1.58.24.627.36 1.34.36 2.14v.36c0 .813-.113 1.533-.34 2.16a4.935 4.935 0 0 1-.92 1.6 3.896 3.896 0 0 1-1.38.98c-.52.213-1.086.32-1.7.32-.453 0-.846-.047-1.18-.14a3.31 3.31 0 0 1-.88-.38c-.24-.16-.446-.34-.62-.54a4.99 4.99 0 0 1-.42-.66h-.36V47Zm2.64-6.12c.787 0 1.42-.24 1.9-.72.494-.493.74-1.16.74-2v-.24c0-.84-.246-1.5-.74-1.98-.48-.493-1.113-.74-1.9-.74-.786 0-1.426.253-1.92.76-.48.493-.72 1.147-.72 1.96v.24c0 .813.24 1.473.72 1.98.494.493 1.134.74 1.92.74ZM78.266 47h-2.52V33.08h2.52v1.44h.36a2.872 2.872 0 0 1 1.16-1.26c.507-.307 1.154-.46 1.94-.46.587 0 1.14.113 1.66.34.534.227.994.56 1.38 1 .4.427.714.953.94 1.58.24.627.36 1.34.36 2.14v.36c0 .813-.113 1.533-.34 2.16a4.939 4.939 0 0 1-.92 1.6 3.898 3.898 0 0 1-1.38.98c-.52.213-1.086.32-1.7.32-.453 0-.846-.047-1.18-.14a3.307 3.307 0 0 1-.88-.38c-.24-.16-.446-.34-.62-.54a4.99 4.99 0 0 1-.42-.66h-.36V47Zm2.64-6.12c.787 0 1.42-.24 1.9-.72.494-.493.74-1.16.74-2v-.24c0-.84-.246-1.5-.74-1.98-.48-.493-1.113-.74-1.9-.74-.786 0-1.426.253-1.92.76-.48.493-.72 1.147-.72 1.96v.24c0 .813.24 1.473.72 1.98.494.493 1.134.74 1.92.74Zm13.674-7.6c0-.56-.22-1.047-.66-1.46-.427-.413-1.034-.62-1.82-.62-.667 0-1.194.14-1.58.42-.387.267-.58.633-.58 1.1 0 .24.046.46.14.66.093.187.253.36.48.52.24.147.546.28.92.4.386.12.873.233 1.46.34 1.466.267 2.586.713 3.36 1.34.773.627 1.16 1.553 1.16 2.78V39a4.29 4.29 0 0 1-.36 1.78 3.65 3.65 0 0 1-1 1.34c-.44.373-.974.66-1.6.86-.627.2-1.334.3-2.12.3-.92 0-1.734-.127-2.44-.38-.694-.267-1.274-.627-1.74-1.08a4.678 4.678 0 0 1-1.06-1.62 5.657 5.657 0 0 1-.36-2.04v-.6h2.64v.48c0 .84.24 1.513.72 2.02.493.493 1.253.74 2.28.74.8 0 1.393-.173 1.78-.52.386-.347.58-.76.58-1.24 0-.227-.04-.44-.12-.64-.08-.213-.22-.4-.42-.56-.2-.173-.474-.327-.82-.46a7.215 7.215 0 0 0-1.32-.34 14.308 14.308 0 0 1-1.94-.46c-.587-.2-1.1-.46-1.54-.78-.427-.32-.76-.72-1-1.2s-.36-1.067-.36-1.76v-.12c0-.573.113-1.1.34-1.58.24-.493.566-.92.98-1.28.426-.36.933-.64 1.52-.84.6-.2 1.266-.3 2-.3.826 0 1.56.12 2.2.36.64.227 1.173.54 1.6.94.44.4.766.86.98 1.38.226.52.34 1.067.34 1.64v.72h-2.64v-.48Zm4.113-.2h2.94V29h2.52v4.08h3.58v2.4h-3.58V40c0 .4.18.6.54.6h2.68V43h-4.2c-.453 0-.827-.147-1.12-.44-.28-.293-.42-.667-.42-1.12v-5.96h-2.94v-2.4Zm21.353 5.08c0 .827-.14 1.56-.42 2.2-.28.627-.66 1.16-1.14 1.6a5.062 5.062 0 0 1-1.66.98 5.55 5.55 0 0 1-1.94.34c-.68 0-1.333-.113-1.96-.34a5.116 5.116 0 0 1-1.64-.98c-.48-.44-.86-.973-1.14-1.6-.28-.64-.42-1.373-.42-2.2v-.24c0-.813.14-1.533.42-2.16.28-.64.66-1.18 1.14-1.62a4.94 4.94 0 0 1 1.64-1 5.719 5.719 0 0 1 1.96-.34c.68 0 1.327.113 1.94.34a4.745 4.745 0 0 1 2.8 2.62c.28.627.42 1.347.42 2.16v.24Zm-5.16 2.72c.36 0 .7-.06 1.02-.18.32-.12.6-.293.84-.52.24-.227.427-.5.56-.82.147-.333.22-.707.22-1.12v-.4c0-.413-.073-.78-.22-1.1a2.32 2.32 0 0 0-.56-.84c-.24-.227-.52-.4-.84-.52a2.88 2.88 0 0 0-1.02-.18c-.36 0-.7.06-1.02.18-.32.12-.6.293-.84.52-.24.227-.433.507-.58.84-.133.32-.2.687-.2 1.1v.4a3 3 0 0 0 .2 1.12c.147.32.34.593.58.82.24.227.52.4.84.52.32.12.66.18 1.02.18Zm6.313-7.8h4.2v1.44h.36c.187-.547.5-.967.94-1.26.454-.307.994-.46 1.62-.46.987 0 1.78.313 2.38.94.6.613.9 1.553.9 2.82V37l-2.6.24v-.28c0-.547-.14-.98-.42-1.3-.28-.333-.7-.5-1.26-.5s-1 .193-1.32.58c-.32.387-.48.94-.48 1.66v3.2h2.28V43h-6.84v-2.4h2.04v-5.12h-1.8v-2.4Zm14.054 5.78c.013.293.08.567.2.82.133.24.306.453.52.64.226.173.48.313.76.42.293.093.6.14.92.14.626 0 1.106-.107 1.44-.32.333-.227.573-.493.72-.8l2.16 1.2c-.12.253-.287.52-.5.8a3.576 3.576 0 0 1-.84.74 4.47 4.47 0 0 1-1.24.56c-.48.147-1.047.22-1.7.22-.747 0-1.427-.12-2.04-.36a4.603 4.603 0 0 1-1.6-1.04 4.88 4.88 0 0 1-1.04-1.66c-.24-.653-.36-1.393-.36-2.22v-.12c0-.76.126-1.453.38-2.08a4.82 4.82 0 0 1 1.08-1.6c.453-.44.98-.78 1.58-1.02a5.08 5.08 0 0 1 1.96-.38c.853 0 1.586.153 2.2.46.613.293 1.12.673 1.52 1.14.4.453.693.96.88 1.52.186.547.28 1.08.28 1.6v1.34h-7.28Zm2.38-3.78c-.64 0-1.16.167-1.56.5-.4.32-.66.693-.78 1.12h4.68c-.08-.467-.334-.853-.76-1.16-.414-.307-.94-.46-1.58-.46ZM56.25 17.5h-2.38l-.34 1.5h-1.38l1.67-7h2.48l1.67 7h-1.38l-.34-1.5Zm-2.1-1.26h1.81l-.81-3.58h-.18l-.82 3.58Zm3.957-2.2h1.36l1.17 4.36h.18l1.17-4.36h1.36L61.927 19h-2.4l-1.42-4.96Zm9.236 4.24c-.133.313-.32.537-.56.67-.24.127-.52.19-.84.19-.3 0-.583-.057-.85-.17-.26-.113-.49-.28-.69-.5-.2-.22-.36-.487-.48-.8a3.134 3.134 0 0 1-.17-1.07v-.16c0-.393.057-.747.17-1.06a2.47 2.47 0 0 1 .46-.8c.194-.22.417-.387.67-.5.26-.12.537-.18.83-.18.354 0 .637.06.85.18.22.12.394.307.52.56h.18v-.6h1.26v3.46c0 .2.09.3.27.3h.19V19h-.86a.8.8 0 0 1-.56-.2.686.686 0 0 1-.21-.52h-.18Zm-1.12-.34c.367 0 .66-.12.88-.36.22-.247.33-.58.33-1v-.12c0-.42-.11-.75-.33-.99-.22-.247-.513-.37-.88-.37-.366 0-.66.123-.88.37-.22.24-.33.57-.33.99v.12c0 .42.11.753.33 1 .22.24.514.36.88.36Zm3.677-.14h1.68v-2.56h-1.56v-1.2h2.82v3.76h1.44V19H69.9v-1.2Zm3.25-5.23c0 .133-.027.26-.08.38a.913.913 0 0 1-.2.3c-.087.08-.19.147-.31.2a.936.936 0 0 1-.36.07.961.961 0 0 1-.37-.07 1.175 1.175 0 0 1-.3-.2 1.057 1.057 0 0 1-.21-.3 1.039 1.039 0 0 1 0-.75.897.897 0 0 1 .21-.3.909.909 0 0 1 .3-.2.858.858 0 0 1 .37-.08c.126 0 .246.027.36.08.12.047.223.113.31.2.087.08.153.18.2.3.053.113.08.237.08.37Zm2.306 5.23h1.74v-4.6h-1.68V12h2.94v5.8h1.62V19h-4.62v-1.2Zm8.917.48c-.133.313-.32.537-.56.67-.24.127-.52.19-.84.19-.3 0-.583-.057-.85-.17-.26-.113-.49-.28-.69-.5-.2-.22-.36-.487-.48-.8a3.134 3.134 0 0 1-.17-1.07v-.16c0-.393.057-.747.17-1.06a2.47 2.47 0 0 1 .46-.8c.193-.22.417-.387.67-.5.26-.12.537-.18.83-.18.353 0 .637.06.85.18.22.12.393.307.52.56h.18v-.6h1.26v3.46c0 .2.09.3.27.3h.19V19h-.86a.8.8 0 0 1-.56-.2.686.686 0 0 1-.21-.52h-.18Zm-1.12-.34c.367 0 .66-.12.88-.36.22-.247.33-.58.33-1v-.12c0-.42-.11-.75-.33-.99-.22-.247-.513-.37-.88-.37s-.66.123-.88.37c-.22.24-.33.57-.33.99v.12c0 .42.11.753.33 1 .22.24.513.36.88.36ZM87.89 19h-1.26v-7h1.26v2.76h.18c.133-.273.326-.483.58-.63.253-.153.576-.23.97-.23.293 0 .57.057.83.17.266.113.496.28.69.5.2.213.356.477.47.79.12.313.18.67.18 1.07v.18c0 .407-.057.767-.17 1.08a2.47 2.47 0 0 1-.46.8 1.948 1.948 0 0 1-.69.49c-.26.107-.544.16-.85.16-.227 0-.424-.023-.59-.07a1.656 1.656 0 0 1-.44-.19 1.53 1.53 0 0 1-.31-.27 2.502 2.502 0 0 1-.21-.33h-.18V19Zm1.32-1.06c.393 0 .71-.12.95-.36.246-.247.37-.58.37-1v-.12c0-.42-.124-.75-.37-.99-.24-.247-.557-.37-.95-.37-.394 0-.714.127-.96.38-.24.247-.36.573-.36.98v.12c0 .407.12.737.36.99.246.247.566.37.96.37Zm3.276-.14h1.74v-4.6h-1.68V12h2.94v5.8h1.62V19h-4.62v-1.2Zm6.817-.87c.007.147.04.283.1.41.067.12.153.227.26.32a1.5 1.5 0 0 0 .38.21c.147.047.3.07.46.07.313 0 .553-.053.72-.16.167-.113.287-.247.36-.4l1.08.6a2.26 2.26 0 0 1-.25.4 1.788 1.788 0 0 1-.42.37 2.228 2.228 0 0 1-.62.28c-.24.073-.523.11-.85.11a2.78 2.78 0 0 1-1.02-.18 2.306 2.306 0 0 1-.8-.52 2.443 2.443 0 0 1-.52-.83 3.204 3.204 0 0 1-.18-1.11v-.06c0-.38.063-.727.19-1.04.133-.313.313-.58.54-.8.227-.22.49-.39.79-.51a2.54 2.54 0 0 1 .98-.19c.427 0 .793.077 1.1.23.307.147.56.337.76.57.2.227.347.48.44.76.093.273.14.54.14.8v.67h-3.64Zm1.19-1.89c-.32 0-.58.083-.78.25-.2.16-.33.347-.39.56h2.34a.885.885 0 0 0-.38-.58c-.207-.153-.47-.23-.79-.23Zm13.913 1.54c0 .413-.07.78-.21 1.1-.14.313-.33.58-.57.8-.24.213-.516.377-.83.49-.306.113-.63.17-.97.17-.34 0-.666-.057-.98-.17a2.564 2.564 0 0 1-.82-.49c-.24-.22-.43-.487-.57-.8a2.72 2.72 0 0 1-.21-1.1v-.12c0-.407.07-.767.21-1.08.14-.32.33-.59.57-.81.24-.22.514-.387.82-.5.314-.113.64-.17.98-.17.34 0 .664.057.97.17a2.372 2.372 0 0 1 1.4 1.31c.14.313.21.673.21 1.08v.12Zm-2.58 1.36c.18 0 .35-.03.51-.09.16-.06.3-.147.42-.26.12-.113.214-.25.28-.41.074-.167.11-.353.11-.56v-.2c0-.207-.036-.39-.11-.55a1.153 1.153 0 0 0-.28-.42c-.12-.113-.26-.2-.42-.26a1.44 1.44 0 0 0-.51-.09c-.18 0-.35.03-.51.09-.16.06-.3.147-.42.26-.12.113-.216.253-.29.42-.066.16-.1.343-.1.55v.2c0 .207.034.393.1.56a1.238 1.238 0 0 0 .71.67c.16.06.33.09.51.09Zm4.657 1.06h-1.26v-4.96h1.26v.74h.18a1.31 1.31 0 0 1 .55-.65c.253-.153.55-.23.89-.23.24 0 .463.04.67.12.213.073.4.19.56.35.16.16.283.363.37.61.093.247.14.54.14.88V19h-1.26v-2.82c0-.353-.087-.63-.26-.83-.167-.207-.41-.31-.73-.31-.374 0-.654.127-.84.38-.18.247-.27.58-.27 1V19Zm9.953-4.96h1.47V12h1.26v2.04h1.79v1.2h-1.79v2.26c0 .2.09.3.27.3h1.34V19h-2.1a.758.758 0 0 1-.56-.22.778.778 0 0 1-.21-.56v-2.98h-1.47v-1.2Zm7.097 4.96h-1.26v-7h1.26v2.84h.18c.126-.3.313-.53.56-.69.246-.167.55-.25.91-.25.246 0 .473.04.68.12.206.08.386.2.54.36.153.16.273.367.36.62.086.247.13.54.13.88V19h-1.26v-2.82c0-.353-.087-.63-.26-.83-.167-.207-.41-.31-.73-.31-.374 0-.654.127-.84.38-.18.247-.27.58-.27 1V19Zm5.506-2.07c.007.147.04.283.1.41.067.12.154.227.26.32.114.087.24.157.38.21.147.047.3.07.46.07.314 0 .554-.053.72-.16.167-.113.287-.247.36-.4l1.08.6a2.26 2.26 0 0 1-.25.4 1.749 1.749 0 0 1-.42.37 2.215 2.215 0 0 1-.62.28c-.24.073-.523.11-.85.11a2.78 2.78 0 0 1-1.02-.18 2.315 2.315 0 0 1-.8-.52 2.447 2.447 0 0 1-.52-.83 3.204 3.204 0 0 1-.18-1.11v-.06c0-.38.064-.727.19-1.04a2.44 2.44 0 0 1 .54-.8c.227-.22.49-.39.79-.51.307-.127.634-.19.98-.19.427 0 .794.077 1.1.23.307.147.56.337.76.57.2.227.347.48.44.76.094.273.14.54.14.8v.67h-3.64Zm1.19-1.89c-.32 0-.58.083-.78.25-.2.16-.33.347-.39.56h2.34a.881.881 0 0 0-.38-.58c-.206-.153-.47-.23-.79-.23Z"/></g><path fill-rule="evenodd" clip-rule="evenodd" d="M29.55 16.233c.988-1.207 2.683-2.133 4.133-2.233.243 1.649-.428 3.264-1.316 4.406-.948 1.226-2.586 2.175-4.17 2.126-.29-1.58.452-3.205 1.353-4.3Zm4.466 4.3c1.93 0 3.974 1.044 5.429 2.843-4.768 2.595-3.996 9.352.822 11.162-.663 1.457-.98 2.107-1.835 3.398-1.191 1.8-2.869 4.044-4.952 4.06-.856.01-1.418-.246-2.023-.522-.702-.32-1.463-.666-2.81-.658-1.34.006-2.112.348-2.824.663-.621.275-1.196.529-2.059.52-2.08-.017-3.672-2.042-4.863-3.842-3.33-5.033-3.681-10.941-1.627-14.084 1.462-2.231 3.766-3.536 5.93-3.536 1.154 0 2.084.329 2.97.642.806.285 1.577.558 2.446.558.805 0 1.467-.249 2.189-.52.865-.326 1.818-.684 3.207-.684Z" fill="#495567"/><defs><clipPath id="a"><path fill="#fff" transform="translate(52 8)" d="M0 0h91v39H0z"/></clipPath></defs></svg>