<svg width="182" height="56" fill="none" xmlns="http://www.w3.org/2000/svg"><rect width="182" height="56" rx="4" fill="#E5ECF4"/><g clip-path="url(#a)" fill="#495567"><path d="M57.2 35.92h6V43h-2.4v-1.56h-.36c-.16.52-.467.96-.92 1.32-.453.347-1.133.52-2.04.52-.64 0-1.24-.12-1.8-.36a4.075 4.075 0 0 1-1.46-1.06c-.413-.48-.74-1.067-.98-1.76-.24-.707-.36-1.527-.36-2.46v-3.28c0-.907.127-1.707.38-2.4.267-.707.627-1.3 1.08-1.78.467-.48 1.02-.84 1.66-1.08a5.713 5.713 0 0 1 2.12-.38c.8 0 1.513.133 2.14.4.627.253 1.16.613 1.6 1.08.44.453.773.993 1 1.62.227.613.34 1.273.34 1.98v.24h-2.64v-.24c0-.84-.22-1.473-.66-1.9-.427-.44-1.033-.66-1.82-.66-.747 0-1.36.253-1.84.76-.48.493-.72 1.347-.72 2.56v2.96c0 2.16.88 3.24 2.64 3.24.787 0 1.38-.207 1.78-.62.413-.427.62-.993.62-1.7H57.2v-2.52Zm17.433 2.24c0 .827-.14 1.56-.42 2.2-.28.627-.66 1.16-1.14 1.6a5.065 5.065 0 0 1-1.66.98 5.55 5.55 0 0 1-1.94.34c-.68 0-1.333-.113-1.96-.34a5.113 5.113 0 0 1-1.64-.98c-.48-.44-.86-.973-1.14-1.6-.28-.64-.42-1.373-.42-2.2v-.24c0-.813.14-1.533.42-2.16.28-.64.66-1.18 1.14-1.62a4.937 4.937 0 0 1 1.64-1 5.717 5.717 0 0 1 1.96-.34c.68 0 1.327.113 1.94.34.627.227 1.18.56 1.66 1 .48.44.86.98 1.14 1.62.28.627.42 1.347.42 2.16v.24Zm-5.16 2.72c.36 0 .7-.06 1.02-.18.32-.12.6-.293.84-.52.24-.227.427-.5.56-.82.147-.333.22-.707.22-1.12v-.4c0-.413-.073-.78-.22-1.1a2.324 2.324 0 0 0-.56-.84c-.24-.227-.52-.4-.84-.52a2.88 2.88 0 0 0-1.02-.18c-.36 0-.7.06-1.02.18-.32.12-.6.293-.84.52-.24.227-.433.507-.58.84-.133.32-.2.687-.2 1.1v.4c0 .413.067.787.2 1.12.147.32.34.593.58.82.24.227.52.4.84.52.32.12.66.18 1.02.18Zm16.514-2.72c0 .827-.14 1.56-.42 2.2-.28.627-.66 1.16-1.14 1.6a5.066 5.066 0 0 1-1.66.98 5.55 5.55 0 0 1-1.94.34c-.68 0-1.334-.113-1.96-.34a5.112 5.112 0 0 1-1.64-.98c-.48-.44-.86-.973-1.14-1.6-.28-.64-.42-1.373-.42-2.2v-.24c0-.813.14-1.533.42-2.16.28-.64.66-1.18 1.14-1.62a4.936 4.936 0 0 1 1.64-1 5.717 5.717 0 0 1 1.96-.34c.68 0 1.326.113 1.94.34.626.227 1.18.56 1.66 1 .48.44.86.98 1.14 1.62.28.627.42 1.347.42 2.16v.24Zm-5.16 2.72c.36 0 .7-.06 1.02-.18.32-.12.6-.293.84-.52.24-.227.426-.5.56-.82.146-.333.22-.707.22-1.12v-.4c0-.413-.074-.78-.22-1.1a2.325 2.325 0 0 0-.56-.84c-.24-.227-.52-.4-.84-.52a2.88 2.88 0 0 0-1.02-.18c-.36 0-.7.06-1.02.18-.32.12-.6.293-.84.52-.24.227-.434.507-.58.84-.134.32-.2.687-.2 1.1v.4c0 .413.066.787.2 1.12.146.32.34.593.58.82.24.227.52.4.84.52.32.12.66.18 1.02.18Zm13.873.68h-.36c-.107.227-.24.447-.4.66-.147.2-.347.38-.6.54-.24.16-.534.287-.88.38-.334.093-.74.14-1.22.14a4.589 4.589 0 0 1-1.72-.32 4.15 4.15 0 0 1-1.38-.98 4.937 4.937 0 0 1-.92-1.6c-.214-.627-.32-1.347-.32-2.16v-.36c0-.8.113-1.513.34-2.14.24-.627.56-1.153.96-1.58.413-.44.886-.773 1.42-1a4.446 4.446 0 0 1 1.72-.34c.8 0 1.433.153 1.9.46.466.293.833.713 1.1 1.26h.36v-1.44h2.52v12.36c0 .453-.147.827-.44 1.12-.28.293-.647.44-1.1.44H89v-2.4h5.16c.36 0 .54-.2.54-.6v-2.44Zm-2.64-.68c.786 0 1.42-.247 1.9-.74.493-.507.74-1.167.74-1.98v-.24c0-.813-.247-1.467-.74-1.96-.48-.507-1.114-.76-1.9-.76-.787 0-1.427.247-1.92.74-.48.48-.72 1.14-.72 1.98v.24c0 .84.24 1.507.72 2 .493.48 1.133.72 1.92.72Zm6.853-.28h3.48v-9.2h-3.36V29h5.88v11.6h3.24V43h-9.24v-2.4Zm13.633-1.74c.014.293.08.567.2.82.134.24.307.453.52.64.227.173.48.313.76.42.294.093.6.14.92.14.627 0 1.107-.107 1.44-.32.334-.227.574-.493.72-.8l2.16 1.2c-.12.253-.286.52-.5.8a3.536 3.536 0 0 1-.84.74c-.333.227-.746.413-1.24.56-.48.147-1.046.22-1.7.22a5.56 5.56 0 0 1-2.04-.36 4.622 4.622 0 0 1-1.6-1.04 4.895 4.895 0 0 1-1.04-1.66c-.24-.653-.36-1.393-.36-2.22v-.12c0-.76.127-1.453.38-2.08a4.85 4.85 0 0 1 1.08-1.6c.454-.44.98-.78 1.58-1.02a5.087 5.087 0 0 1 1.96-.38c.854 0 1.587.153 2.2.46.614.293 1.12.673 1.52 1.14.4.453.694.96.88 1.52.187.547.28 1.08.28 1.6v1.34h-7.28Zm2.38-3.78c-.64 0-1.16.167-1.56.5-.4.32-.66.693-.78 1.12h4.68c-.08-.467-.333-.853-.76-1.16-.413-.307-.94-.46-1.58-.46Zm9.273 2.64V43h-2.64V29h5.48c.72 0 1.347.12 1.88.36.534.227.974.533 1.32.92.36.373.627.807.8 1.3.187.48.28.973.28 1.48v.48c0 .52-.093 1.033-.28 1.54a3.87 3.87 0 0 1-2.12 2.28c-.533.24-1.16.36-1.88.36h-2.84Zm0-2.52h2.58c.587 0 1.047-.16 1.38-.48.347-.32.52-.733.52-1.24v-.24c0-.507-.173-.92-.52-1.24-.333-.32-.793-.48-1.38-.48h-2.58v3.68Zm8.774 5.4h3.48v-9.2h-3.36V29h5.88v11.6h3.24V43h-9.24v-2.4Zm17.833.96c-.267.627-.64 1.073-1.12 1.34-.48.253-1.04.38-1.68.38a4.3 4.3 0 0 1-1.7-.34c-.52-.227-.98-.56-1.38-1-.4-.44-.72-.973-.96-1.6-.227-.627-.34-1.34-.34-2.14v-.32c0-.787.113-1.493.34-2.12.227-.627.533-1.16.92-1.6.387-.44.833-.773 1.34-1 .52-.24 1.073-.36 1.66-.36.707 0 1.273.12 1.7.36.44.24.787.613 1.04 1.12h.36v-1.2h2.52V40c0 .4.18.6.54.6h.38V43h-1.72c-.453 0-.827-.133-1.12-.4-.28-.267-.42-.613-.42-1.04h-.36Zm-2.24-.68c.733 0 1.32-.24 1.76-.72.44-.493.66-1.16.66-2v-.24c0-.84-.22-1.5-.66-1.98-.44-.493-1.027-.74-1.76-.74-.733 0-1.32.247-1.76.74-.44.48-.66 1.14-.66 1.98v.24c0 .84.22 1.507.66 2 .44.48 1.027.72 1.76.72Zm13.893-7.8h2.52v12.36c0 .453-.147.827-.44 1.12-.28.293-.647.44-1.1.44h-5.9v-2.4h4.38c.36 0 .54-.2.54-.6v-2.44h-.36c-.44 1.147-1.387 1.72-2.84 1.72-.493 0-.953-.08-1.38-.24-.427-.16-.8-.407-1.12-.74a3.612 3.612 0 0 1-.76-1.24c-.173-.507-.26-1.1-.26-1.78v-6.2h2.52v5.68c0 .707.167 1.26.5 1.66.333.387.833.58 1.5.58.76 0 1.313-.24 1.66-.72.36-.493.54-1.16.54-2v-5.2ZM54.6 15.46h3V19h-1.2v-.78h-.18c-.08.26-.233.48-.46.66-.227.173-.567.26-1.02.26-.32 0-.62-.06-.9-.18a2.038 2.038 0 0 1-.73-.53 2.67 2.67 0 0 1-.49-.88 3.824 3.824 0 0 1-.18-1.23v-1.64c0-.453.063-.853.19-1.2.133-.353.313-.65.54-.89.233-.24.51-.42.83-.54.32-.127.673-.19 1.06-.19.4 0 .757.067 1.07.2.313.127.58.307.8.54.22.227.387.497.5.81.113.307.17.637.17.99v.12h-1.32v-.12c0-.42-.11-.737-.33-.95-.213-.22-.517-.33-.91-.33-.373 0-.68.127-.92.38-.24.247-.36.673-.36 1.28v1.48c0 1.08.44 1.62 1.32 1.62.393 0 .69-.103.89-.31.207-.213.31-.497.31-.85H54.6v-1.26Zm4.967 1.47c.006.147.04.283.1.41.066.12.153.227.26.32a1.5 1.5 0 0 0 .38.21c.146.047.3.07.46.07.313 0 .553-.053.72-.16a1.02 1.02 0 0 0 .36-.4l1.08.6c-.06.127-.144.26-.25.4a1.772 1.772 0 0 1-.42.37 2.227 2.227 0 0 1-.62.28c-.24.073-.524.11-.85.11-.374 0-.714-.06-1.02-.18a2.306 2.306 0 0 1-.8-.52 2.443 2.443 0 0 1-.52-.83 3.204 3.204 0 0 1-.18-1.11v-.06c0-.38.063-.727.19-1.04.133-.313.313-.58.54-.8.226-.22.49-.39.79-.51.306-.127.633-.19.98-.19.426 0 .793.077 1.1.23a2.28 2.28 0 0 1 1.2 1.33c.093.273.14.54.14.8v.67h-3.64Zm1.19-1.89c-.32 0-.58.083-.78.25-.2.16-.33.347-.39.56h2.34a.883.883 0 0 0-.38-.58c-.207-.153-.47-.23-.79-.23Zm3.236-1h1.47V12h1.26v2.04h1.79v1.2h-1.79v2.26c0 .2.09.3.27.3h1.34V19h-2.1a.759.759 0 0 1-.56-.22.778.778 0 0 1-.21-.56v-2.98h-1.47v-1.2Zm11.583 3.76h1.68v-2.56h-1.56v-1.2h2.82v3.76h1.44V19h-4.38v-1.2Zm3.25-5.23c0 .133-.026.26-.08.38a.913.913 0 0 1-.2.3c-.086.08-.19.147-.31.2a.936.936 0 0 1-.36.07.961.961 0 0 1-.37-.07 1.175 1.175 0 0 1-.3-.2 1.057 1.057 0 0 1-.21-.3 1.039 1.039 0 0 1 0-.75.897.897 0 0 1 .21-.3.909.909 0 0 1 .3-.2.858.858 0 0 1 .37-.08c.127 0 .247.027.36.08.12.047.224.113.31.2.087.08.154.18.2.3.054.113.08.237.08.37Zm2.197 1.47h1.47V12h1.26v2.04h1.79v1.2h-1.79v2.26c0 .2.09.3.27.3h1.34V19h-2.1a.758.758 0 0 1-.56-.22.778.778 0 0 1-.21-.56v-2.98h-1.47v-1.2Zm16.353 2.54c0 .413-.07.78-.21 1.1-.14.313-.33.58-.57.8-.24.213-.516.377-.83.49-.306.113-.63.17-.97.17a2.86 2.86 0 0 1-.98-.17 2.557 2.557 0 0 1-.82-.49c-.24-.22-.43-.487-.57-.8a2.72 2.72 0 0 1-.21-1.1v-.12c0-.407.07-.767.21-1.08.14-.32.33-.59.57-.81.24-.22.514-.387.82-.5.314-.113.64-.17.98-.17.34 0 .664.057.97.17a2.372 2.372 0 0 1 1.4 1.31c.14.313.21.673.21 1.08v.12Zm-2.58 1.36c.18 0 .35-.03.51-.09.16-.06.3-.147.42-.26.12-.113.214-.25.28-.41.074-.167.11-.353.11-.56v-.2c0-.207-.036-.39-.11-.55a1.16 1.16 0 0 0-.28-.42c-.12-.113-.26-.2-.42-.26a1.44 1.44 0 0 0-.51-.09c-.18 0-.35.03-.51.09-.16.06-.3.147-.42.26-.12.113-.216.253-.29.42-.066.16-.1.343-.1.55v.2c0 .207.034.393.1.56a1.238 1.238 0 0 0 .71.67c.16.06.33.09.51.09ZM99.453 19h-1.26v-4.96h1.26v.74h.18c.113-.28.297-.497.55-.65.253-.153.55-.23.89-.23.24 0 .463.04.67.12.213.073.4.19.56.35.16.16.283.363.37.61.093.247.14.54.14.88V19h-1.26v-2.82c0-.353-.087-.63-.26-.83-.167-.207-.41-.31-.73-.31-.373 0-.653.127-.84.38-.18.247-.27.58-.27 1V19Z"/></g><path fill-rule="evenodd" clip-rule="evenodd" d="M17.352 14.237a2.348 2.348 0 0 1 2.253.108l13.872 8.078-3.973 3.992-12.152-12.178ZM16 16.421c0-.371.082-.732.236-1.057L28.385 27.54 16.238 39.744A2.381 2.381 0 0 1 16 38.697V16.421Zm13.506 12.24-12.133 12.19c.322.15.665.215 1.007.215.422 0 .844-.101 1.225-.33l13.875-8.09-3.974-3.984Zm9.24-3.17.014.009a2.36 2.36 0 0 1 1.144 2.033c0 .838-.427 1.598-1.144 2.033l-3.863 2.253-4.273-4.281 4.27-4.29 3.852 2.243Z" fill="#495567"/><defs><clipPath id="a"><path fill="#fff" transform="translate(52 8)" d="M0 0h114v39H0z"/></clipPath></defs></svg>