<svg width="96" height="96" fill="none" xmlns="http://www.w3.org/2000/svg"><circle cx="48" cy="48" r="48" fill="#FCB72B"/><path fill-rule="evenodd" clip-rule="evenodd" d="M64.171 46H66a.667.667 0 0 0 .667-.667V40a.667.667 0 0 0-.667-.667h-6.255l-1.078-2.157v-2.51A.667.667 0 0 0 58 34h-4a.667.667 0 0 0-.667.667v2.666c0 .369.299.667.667.667h3.588l1.079 2.157V44a2 2 0 0 0-4 0v-1.333A.667.667 0 0 0 54 42h-5.251l-2.082-.52V30.666A2.667 2.667 0 0 0 44 28h-2.667a2.667 2.667 0 0 0-2.666 2.667V38h-3.334a2 2 0 0 0-2 2v2h-4.666a.667.667 0 0 0-.472 1.138l1.529 1.529-1.529 1.528a.667.667 0 0 0 .472 1.138h6.666a2 2 0 0 0 2-2v-2h1.334V50h-2a4.667 4.667 0 0 0-4.614 4H30a.667.667 0 0 0-.667.667v2.666c0 .369.299.667.667.667h2v1.333h-3.333A.667.667 0 0 0 28 60v2.667c0 .368.299.666.667.666H36a4.667 4.667 0 1 0 9.333 0h12a4.667 4.667 0 1 0 9.334 0h.666a.666.666 0 0 0 .65-.816L64.171 46Zm-9.504-2a2 2 0 1 0 4 0v14h-2v-.667a2 2 0 0 0-2-2V48a.667.667 0 0 0-.667-.667h-7.333v-1.812l1.838.459c.053.013.107.02.162.02H54a.667.667 0 0 0 .667-.667V44Zm2.666-7.333h-2.666v-1.334h2.666v1.334ZM32 62v-1.333h-2.667V62H32Zm0-5.333h-1.333v-1.334H32v1.334Zm33.333-16H64v4h1.333v-4Zm-5.333 0h2.667v4H60v-4Zm-4.667 16.666a.667.667 0 0 0-.666-.666H52V58h3.333v-.667Zm-6.828-14.02c.053.014.107.02.162.02h4.666v1.334H48.75L44 43.479v-1.292l4.505 1.126Zm-7.172-13.98c-.736 0-1.333.597-1.333 1.334v2.666h2V32c0-.368.298-.667.667-.667h2.666v-.666c0-.737-.597-1.334-1.333-1.334h-2.667ZM40 34.667h2.667a.667.667 0 0 0 .666-.667v-1.333h2v1.504L40 35.77v-1.104Zm5.333 4v-3.104L40 37.163v1.504h5.333Zm0 1.333v1.146l-1.838-.46a.666.666 0 0 0-.828.647V44c0 .306.208.572.504.647l2.162.54v2.146H40V40h5.333Zm8 15.333v-6.666H40V50h11.333c.369 0 .667.298.667.667v4.666h1.333ZM36 45.333a.667.667 0 0 1-.667.667h-5.057l.862-.862a.667.667 0 0 0 0-.943l-.862-.862H36v2ZM34.667 40v2h4v-2.667h-3.334a.667.667 0 0 0-.666.667Zm6 26.667a3.337 3.337 0 0 1-3.334-3.334h1.334a2 2 0 1 0 4 0H44a3.337 3.337 0 0 1-3.333 3.334Zm0-2.667a.667.667 0 0 0 .666-.667H40c0 .369.298.667.667.667Zm4.666-2H36v-6.667c0-.368.298-.666.667-.666h8c.368 0 .666.298.666.666V62Zm1.334 0H48v-7.333a3.337 3.337 0 0 0-3.333-3.334h-8a3.337 3.337 0 0 0-3.334 3.334V62h1.334v-6.667a2 2 0 0 1 2-2h8a2 2 0 0 1 2 2V62Zm1.26-10.667h2.74V58h-1.334v-3.333a4.651 4.651 0 0 0-1.406-3.334ZM62 66.667a3.337 3.337 0 0 1-3.333-3.334H60a2 2 0 1 0 4 0h1.333A3.337 3.337 0 0 1 62 66.667ZM62 64a.667.667 0 0 0 .667-.667h-1.334c0 .369.299.667.667.667Zm-2-2v-4.667h1.333V56H60V46h2.8l3.692 16H60Zm-10.667 0h9.334v-2.667h-9.334V62ZM64 56h-1.333v1.333H64V56Zm-26.667 0h1.334v1.333h-1.334V56Zm4 0H40v1.333h1.333V56Zm1.334 0H44v1.333h-1.333V56Zm14-12.667a.667.667 0 1 1 0 1.334.667.667 0 0 1 0-1.334ZM28 32.667h8.667V34H28v-1.333Zm9.333 2.666h-8v1.334h8v-1.334Z" fill="#495567"/></svg>